HIERARCHY
ROOT Hips
{
	OFFSET 0.00000 0.00000 0.00000
	CHANNELS 6 Xposition Yposition Zposition Zrotation Yrotation Xrotation 
	JOINT LHipJoint
	{
		OFFSET 0 0 0
		CHANNELS 3 Zrotation Yrotation Xrotation
		JOINT LeftHip
		{
			OFFSET 1.53139 -1.83434 0.76626
			CHANNELS 3 Zrotation Yrotation Xrotation
			JOINT LeftKnee
			{
				OFFSET 2.56112 -7.03663 0.00000
				CHANNELS 3 Zrotation Yrotation Xrotation
				JOINT LeftAnkle
				{
					OFFSET 2.59983 -7.14299 0.00000
					CHANNELS 3 Zrotation Yrotation Xrotation
					JOINT LeftToe
					{
						OFFSET 0.13742 -0.37757 2.00054
						CHANNELS 3 Zrotation Yrotation Xrotation
						End Site
						{
							OFFSET 0.00000 -0.00000 1.02897
						}
					}
				}
			}
		}
	}
	JOINT RHipJoint
	{
		OFFSET 0 0 0
		CHANNELS 3 Zrotation Yrotation Xrotation
		JOINT RightHip
		{
			OFFSET -1.40122 -1.83435 0.76627
			CHANNELS 3 Zrotation Yrotation Xrotation
			JOINT RightKnee
			{
				OFFSET -2.54052 -6.98003 0.00000
				CHANNELS 3 Zrotation Yrotation Xrotation
				JOINT RightAnkle
				{
					OFFSET -2.63179 -7.23079 0.00000
					CHANNELS 3 Zrotation Yrotation Xrotation
					JOINT RightToe
					{
						OFFSET -0.24131 -0.66299 2.03908
						CHANNELS 3 Zrotation Yrotation Xrotation
						End Site
						{
							OFFSET -0.00000 -0.00000 1.07391
						}
					}
				}
			}
		}
	}
	JOINT lowerback
	{
		OFFSET 0 0 0
		CHANNELS 3 Zrotation Yrotation Xrotation
		JOINT Chest
		{
			OFFSET 0.01174 2.10302 -0.29778
			CHANNELS 3 Zrotation Yrotation Xrotation
			JOINT Chest2
			{
				OFFSET 0.00772 2.13227 -0.01247
				CHANNELS 3 Zrotation Yrotation Xrotation
				JOINT lowerneck
				{
					OFFSET 0 0 0
					CHANNELS 3 Zrotation Yrotation Xrotation
					JOINT Neck
					{
						OFFSET -0.09219 1.60848 0.31481
						CHANNELS 3 Zrotation Yrotation Xrotation
						JOINT Head
						{
							OFFSET 0.13974 1.65456 -0.31134
							CHANNELS 3 Zrotation Yrotation Xrotation
							End Site
							{
								OFFSET 0.04742 1.69515 -0.14578
							}
						}
					}
				}
				JOINT LeftCollar
				{
					OFFSET 0 0 0
					CHANNELS 3 Zrotation Yrotation Xrotation
					JOINT LeftShoulder
					{
						OFFSET 3.24909 1.02882 -0.23993
CHANNELS 3 Zrotation Xrotation Yrotation
						JOINT LeftElbow
						{
OFFSET 0 -5.329550 -0.000000
CHANNELS 3 Zrotation Xrotation Yrotation
							JOINT LeftWrist
							{
OFFSET 0 -3.692320 -0.000000
CHANNELS 3 Zrotation Xrotation Yrotation
								JOINT lhand
								{
									OFFSET 0 0 0
CHANNELS 3 Zrotation Xrotation Yrotation
									JOINT LFingers
									{
OFFSET 0 -0.536600 -0.000000
CHANNELS 3 Zrotation Xrotation Yrotation
										End Site
										{
OFFSET 0 -0.432620 -0.000000
										}
									}
								}
								JOINT LThumb
								{
OFFSET 0 0.000000 0.000000
CHANNELS 3 Zrotation Xrotation Yrotation
									End Site
									{
OFFSET 0 -0.439220 0.439220
									}
								}
							}
						}
					}
				}
				JOINT RightCollar
				{
					OFFSET 0 0 0
					CHANNELS 3 Zrotation Yrotation Xrotation
					JOINT RightShoulder
					{
						OFFSET -3.21387 0.93002 -0.34594
CHANNELS 3 Zrotation Xrotation Yrotation
						JOINT RightElbow
						{
OFFSET 0 -5.234310 0.000000
CHANNELS 3 Zrotation Xrotation Yrotation
							JOINT RightWrist
							{
OFFSET 0 -3.553010 -0.000000
CHANNELS 3 Zrotation Xrotation Yrotation
								JOINT rhand
								{
									OFFSET 0 0 0
CHANNELS 3 Zrotation Xrotation Yrotation
									JOINT RFingers
									{
OFFSET 0 -0.772520 -0.000000
CHANNELS 3 Zrotation Xrotation Yrotation
										End Site
										{
OFFSET 0 -0.622830 -0.000000
										}
									}
								}
								JOINT RThumb
								{
OFFSET 0 0.000000 0.000000
CHANNELS 3 Zrotation Xrotation Yrotation
									End Site
									{
OFFSET 0 -0.632340 0.632340
									}
								}
							}
						}
					}
				}
			}
		}
	}
}
MOTION
Frames: 6
Frame Time: 0.008333333333333333
-14.421800 17.814900 12.160300 3.388800 3.742000 -3.942400 0.000000 0.000000 0.000000 -21.928000 -3.746500 -8.952800 6.220800 14.638900 45.861500 0.356000 -4.950900 -10.657300 0.657500 -5.186400 -14.441000 0.000000 0.000000 0.000000 19.693400 7.006400 -14.742600 -2.740800 -10.263200 29.833200 -0.172800 1.353600 -7.492000 -0.123100 -2.261700 6.229400 0.080700 -0.492200 11.268300 1.786800 -0.567000 2.792800 1.892100 -0.277900 -3.382600 -14.385200 -5.865700 -10.032600 3.452800 -6.420100 40.525900 3.007100 -4.381200 17.201900 0.000000 -0.000000 0.000000 0.618200 6.961700 -21.049700 18.947000 -29.352800 5.004900 21.042800 13.795600 -23.506900 0.000000 0.000000 0.000000 -7.125000 0.000000 0.000000 -8.697500 54.756500 2.096200 0.000000 -0.000000 0.000000 -3.064200 2.172000 19.122500 -17.828800 -27.937400 -4.468700 -13.227700 3.164300 -7.287200 0.000000 0.000000 0.000000 7.125000 0.000000 -0.000000 9.899900 22.528200 5.430600
-14.358943 17.842141 11.837975 3.659458 4.369106 -4.033907 0.000000 0.000000 0.000000 -21.710082 -2.801441 -6.145497 7.807118 15.975430 51.864693 -0.144996 -6.962501 0.722026 0.162633 -2.570864 -7.087834 0.000000 0.000000 0.000000 19.033880 7.420098 -15.093344 -2.554287 -9.935948 28.769651 -0.091931 -0.019549 -5.731685 -0.090375 -1.934357 5.324387 -0.611847 -1.229639 10.915294 1.882389 -1.622802 2.907091 2.515795 -0.802105 -3.012191 -14.168749 -5.239152 -9.894868 3.639743 -5.652603 41.113045 3.212147 -4.041088 17.383087 0.000000 0.000000 0.000000 0.990022 6.264746 -22.681762 19.455510 -29.980739 5.256555 20.248335 14.399015 -24.885948 0.000000 0.000000 0.000000 -7.125000 0.000000 0.000000 -10.115444 56.003076 2.750472 0.000000 0.000000 0.000000 -3.087188 2.954375 16.988957 -17.804414 -27.905981 -4.457324 -13.607735 3.024821 -7.064807 0.000000 0.000000 0.000000 7.125000 0.000000 0.000000 9.634753 22.740359 5.233540
-14.273342 17.831293 11.432937 3.600170 4.998945 -3.976799 0.000000 0.000000 0.000000 -21.304332 -1.535310 -2.299728 8.246765 16.297724 53.446635 -0.069774 -7.788802 9.447957 0.529773 -4.662274 -12.948126 0.000000 0.000000 0.000000 18.389387 7.334349 -16.252873 -2.416044 -9.683587 27.958076 -0.040565 -0.503207 -4.021568 -0.066976 -1.666757 4.585599 -1.013218 -1.770583 10.420219 2.064943 -2.377286 2.756166 3.013777 -1.177117 -2.836084 -13.934135 -4.890167 -9.430028 3.270756 -5.134397 41.591645 3.109715 -3.868111 17.442958 0.000000 0.000000 0.000000 1.335686 5.225593 -23.928446 20.377276 -31.094119 5.724964 20.738770 14.078666 -24.827984 0.000000 0.000000 0.000000 -7.125000 0.000000 0.000000 -9.575284 56.045401 2.611397 0.000000 0.000000 0.000000 -3.027343 4.439212 14.117946 -17.235057 -27.166646 -4.194131 -13.662390 2.726676 -8.501296 0.000000 0.000000 0.000000 7.125000 0.000000 0.000000 9.530132 21.282665 5.496197
-14.150945 17.750340 10.898802 4.226882 5.441446 -3.744849 0.000000 0.000000 0.000000 -22.339027 -0.416159 2.962794 6.438483 14.838633 46.714290 0.022813 -10.565627 15.395553 0.110757 -2.145518 -5.907996 0.000000 0.000000 0.000000 16.581755 7.648262 -18.765231 -2.524560 -9.882460 28.596991 -0.015828 -0.395086 -2.557204 -0.088886 -1.917595 5.278152 -1.816447 -1.995635 9.757455 1.901103 -2.761020 2.650322 3.314309 -1.369911 -2.527919 -14.326650 -4.682731 -9.189393 3.733429 -4.945576 41.705313 3.434536 -3.804063 17.456367 0.000000 0.000000 0.000000 1.746410 3.358851 -25.095109 21.196156 -32.056607 6.153693 20.632011 13.761208 -26.537609 0.000000 0.000000 0.000000 -7.125000 0.000000 0.000000 -10.506498 57.755841 3.304853 0.000000 0.000000 0.000000 -2.993751 6.077616 13.182584 -16.316158 -25.947465 -3.783234 -15.049934 1.068099 -8.412427 0.000000 0.000000 0.000000 7.125000 0.000000 0.000000 8.535541 21.311276 4.902771
-14.003861 17.594729 10.184105 4.906276 5.968922 -3.405704 0.000000 0.000000 0.000000 -24.166626 0.004233 8.764932 3.603748 11.612303 34.375652 -0.589471 -14.297972 10.489337 0.166566 -2.629144 -7.247946 0.000000 0.000000 0.000000 14.407879 8.158473 -22.427150 -2.768169 -10.309968 29.986416 -0.000402 -0.373816 -0.684614 -0.065843 -1.648908 4.536514 -2.830920 -2.233246 9.601391 1.730193 -3.179240 2.477600 3.751015 -1.572928 -2.545085 -14.308796 -4.462848 -9.333395 3.632932 -4.547336 41.860322 3.456492 -3.659255 17.524692 0.000000 0.000000 0.000000 2.108881 1.335877 -26.291791 21.989478 -32.965109 6.580133 20.973941 13.454787 -24.267638 0.000000 0.000000 0.000000 -7.125000 0.000000 0.000000 -9.084412 55.521884 2.360255 0.000000 0.000000 0.000000 -2.857359 7.086996 12.628425 -15.407180 -24.710344 -3.394401 -15.654805 0.461633 -8.553299 0.000000 0.000000 0.000000 7.125000 0.000000 0.000000 8.095785 21.138747 4.677446
-13.826112 17.460188 9.266322 5.575147 6.974523 -2.715944 0.000000 0.000000 0.000000 -26.183517 -0.181246 10.722372 2.409392 9.671223 27.918537 -0.659584 -16.081580 -2.126384 0.577691 -4.866841 -13.529340 0.000000 0.000000 0.000000 11.828925 8.863727 -25.148300 -2.329964 -9.521929 27.441998 -0.030602 -1.775187 3.156132 -0.042518 -1.329157 3.655079 -3.807525 -2.543581 9.740765 1.500395 -3.698352 2.416033 4.126158 -1.825373 -2.593832 -13.945733 -4.347071 -9.876910 3.503829 -4.317761 42.001708 3.370862 -3.527014 17.692054 0.000000 0.000000 0.000000 2.386129 -1.491111 -27.665650 22.732861 -33.795392 6.989136 20.918970 13.711425 -25.391727 0.000000 0.000000 0.000000 -7.125000 0.000000 0.000000 -9.642574 56.656872 2.773210 0.000000 0.000000 0.000000 -2.506575 6.983524 11.667347 -15.057900 -24.226691 -3.249698 -15.488747 1.164247 -8.206165 0.000000 0.000000 0.000000 7.125000 0.000000 0.000000 8.225041 21.502737 4.685374
